<svg xmlns="http://www.w3.org/2000/svg" viewBox="0 0 480 512"><defs><style>.cls-1{fill:#555;}</style></defs><title>account</title><g id="レイヤー_2" data-name="レイヤー 2"><g id="レイヤー_1-2" data-name="レイヤー 1"><path class="cls-1" d="M432,0H48A48.14,48.14,0,0,0,0,48V464a48.14,48.14,0,0,0,48,48H432a48.14,48.14,0,0,0,48-48V48A48.14,48.14,0,0,0,432,0ZM416,448H64V64H416ZM128,288H352v32H128Zm0,64H352v32H128Zm32-208a48,48,0,1,1,48,48A48,48,0,0,1,160,144Zm80,48H176c-26.4,0-48,14.4-48,32v32H288V224C288,206.4,266.4,192,240,192Z"/></g></g></svg>