<svg xmlns="http://www.w3.org/2000/svg" viewBox="0 0 448 512"><defs><style>.cls-1{fill:#357ebd;}</style></defs><title>clip</title><g id="レイヤー_2" data-name="レイヤー 2"><g id="レイヤー_1-2" data-name="レイヤー 1"><path class="cls-1" d="M316.92,163.52l-32.48-32.46L122,293.43a68.89,68.89,0,0,0,97.44,97.42L414.36,196A114.82,114.82,0,0,0,252,33.64L47.35,238.23c-.15.15-.31.29-.44.42A160.14,160.14,0,0,0,273.41,465.1l.41-.44,0,0L413.5,325,381,292.58,241.34,432.21c-.15.13-.28.29-.42.42A114.21,114.21,0,0,1,79.38,271.14l.44-.42,0,0L284.44,66.1a68.89,68.89,0,0,1,97.44,97.42L187,358.37a23,23,0,0,1-32.49-32.46l162.4-162.39Z"/></g></g></svg>