<svg xmlns="http://www.w3.org/2000/svg" viewBox="0 0 704.05 703.9"><defs><style>.cls-1{fill:#555;}</style></defs><title>edit</title><g id="レイヤー_2" data-name="レイヤー 2"><g id="レイヤー_1-2" data-name="レイヤー 1"><path class="cls-1" d="M608,405.1a32.09,32.09,0,0,0-32,32V607.9a32.09,32.09,0,0,1-32,32H96a32.09,32.09,0,0,1-32-32v-448a32.09,32.09,0,0,1,32-32H266.8a32,32,0,1,0,0-64H96a96,96,0,0,0-96,96v448a96,96,0,0,0,96,96H544a96,96,0,0,0,96-96V437.1A32,32,0,0,0,608,405.1Z"/><path class="cls-1" d="M694.6,137.3l-128-128a32.11,32.11,0,0,0-45.2,0l-320,320a32.12,32.12,0,0,0-9.4,22.6v128a32.09,32.09,0,0,0,32,32H352a32.12,32.12,0,0,0,22.6-9.4l320-320a31.75,31.75,0,0,0,0-45.2ZM338.8,447.9H256V365.1l288-288,82.8,82.8Z"/></g></g></svg>