<svg xmlns="http://www.w3.org/2000/svg" viewBox="0 0 158.94 53.53"><defs><style>.cls-1{fill:#555;}</style></defs><title>logo</title><g id="レイヤー_2" data-name="レイヤー 2"><g id="レイヤー_1-2" data-name="レイヤー 1"><path class="cls-1" d="M5.3,53.36a17.79,17.79,0,0,1-4.14-.42L0,52.66,2.05,48l.88.31A19.67,19.67,0,0,0,9.55,49.5a15.32,15.32,0,0,0,5.21-.85A13,13,0,0,0,19,46.11a21.76,21.76,0,0,0,3.79-4.66,49.43,49.43,0,0,0,4.72-10.23q.55-1.63,1-3l.13-.44c-1,1.45-2.17,3-3.53,4.67a29.91,29.91,0,0,1-3,3.09,11.09,11.09,0,0,1-2.57,1.72,6.25,6.25,0,0,1-2.62.62,4.7,4.7,0,0,1-4.58-3.19A14.47,14.47,0,0,1,11.82,30V28.49l.63-18c0-.29,0-.65,0-1.12,0-1.47-.22-3.22-1.25-3.22-.69,0-1.34.77-1.77,1.41a19,19,0,0,0-2.1,5.15,65.21,65.21,0,0,0-1.68,8.53L5.4,23.65.82,20.73l.07-.62a36,36,0,0,1,1.45-6.49,28.26,28.26,0,0,1,2.3-5.56c1.94-3.34,4.16-5,6.6-5a5.37,5.37,0,0,1,4.87,3c1,1.84,1.51,4.43,1.51,7.92q0,1.4,0,2.12l-.46,11.84c0,.45,0,.83,0,1.11s0,.54,0,.85c0,3.39,1.21,3.39,1.67,3.39a3.56,3.56,0,0,0,2.07-.87A20.45,20.45,0,0,0,24,29.13a43.09,43.09,0,0,0,4.33-6.56,46.78,46.78,0,0,0,3.3-7.66,50.18,50.18,0,0,0,1.93-8l.08-.54,6.17-2.78-.59,3A157.78,157.78,0,0,1,34,27c-2.13,6.41-4.3,11.29-6.45,14.51a26.41,26.41,0,0,1-9.45,8.91A27,27,0,0,1,5.3,53.36Z"/><path class="cls-1" d="M1.4,52l1.2-2.71a20.56,20.56,0,0,0,7,1.23,16.25,16.25,0,0,0,5.55-.91,14,14,0,0,0,4.57-2.72,22.67,22.67,0,0,0,4-4.87,50.21,50.21,0,0,0,4.82-10.44q.56-1.65,1-3.06t2-7.28l.28-1-.49.95a53.13,53.13,0,0,1-3.11,5.47,61.5,61.5,0,0,1-3.85,5.15,28.79,28.79,0,0,1-2.85,3,10,10,0,0,1-2.34,1.56,5.24,5.24,0,0,1-2.2.53,3.71,3.71,0,0,1-3.66-2.57A13.88,13.88,0,0,1,12.82,30V28.49l.63-18q0-.39,0-1.16,0-4.22-2.25-4.22Q9.87,5.11,8.64,7a19.83,19.83,0,0,0-2.23,5.43A65.92,65.92,0,0,0,4.7,21.07L4.6,22,1.89,20.23A34.9,34.9,0,0,1,3.3,13.92,27.17,27.17,0,0,1,5.51,8.56Q8.15,4,11.24,4a4.35,4.35,0,0,1,4,2.51Q16.62,9,16.62,14q0,1.37,0,2.07l-.46,11.85q0,.7,0,1.11t0,.9q0,4.39,2.67,4.39a4.48,4.48,0,0,0,2.67-1.07,21.27,21.27,0,0,0,3.34-3.46A43.85,43.85,0,0,0,29.21,23a47.6,47.6,0,0,0,3.38-7.82,50.87,50.87,0,0,0,2-8.17l3.9-1.76-.21,1.05A156,156,0,0,1,33,26.73Q29.87,36.26,26.71,41a25.31,25.31,0,0,1-9.09,8.58A25.88,25.88,0,0,1,5.3,52.36,16.73,16.73,0,0,1,1.4,52Z"/><path class="cls-1" d="M50.26,52.73a3.16,3.16,0,0,1-2.67-1.54,5.19,5.19,0,0,1-.76-1.74c-2.1,2.18-4.24,3.29-6.38,3.29a4.93,4.93,0,0,1-3.56-1.32,4.64,4.64,0,0,1-1.38-3.48,18.2,18.2,0,0,1,.41-3.47l2.49-13,5.75-2.43-3.9,15.55a12.23,12.23,0,0,0-.43,2.85,1.6,1.6,0,0,0,.46,1.25,1.81,1.81,0,0,0,1.31.46c1.63,0,3.44-1.49,5.39-4.44l0,0L49.41,31.5l5.83-2.44L51.62,42.6a17.58,17.58,0,0,0-.74,4.31,2.85,2.85,0,0,0,.26,1.35.53.53,0,0,0,.14.19S52,48.38,54,46.17l.66-.72,2.06,1.81-1,1.14a33.76,33.76,0,0,1-3,3.26A3.74,3.74,0,0,1,50.26,52.73Z"/><path class="cls-1" d="M42.71,30.78,39.3,44.38a13.14,13.14,0,0,0-.46,3.09,2.59,2.59,0,0,0,.77,2,2.78,2.78,0,0,0,2,.74q3,0,6.22-4.89l.14-.21q.07-.35.11-.56l2.21-12.3,3.45-1.44L50.65,42.34a18.43,18.43,0,0,0-.77,4.57,3.78,3.78,0,0,0,.39,1.83,1.15,1.15,0,0,0,1,.7q1.09,0,3.48-2.6l.56.49-.35.39a33.7,33.7,0,0,1-3,3.18,2.79,2.79,0,0,1-1.76.83,2.2,2.2,0,0,1-1.85-1.11,4.78,4.78,0,0,1-.76-2.76q0-.53,0-1Q44,51.73,40.46,51.73a4,4,0,0,1-2.87-1,3.66,3.66,0,0,1-1.07-2.76,17.15,17.15,0,0,1,.39-3.27L39.3,32.22Z"/><path class="cls-1" d="M65.66,2.91,71.77,0,63.21,37.28q.62-.82,1.31-1.62a21.81,21.81,0,0,1,2.91-2.86,14.25,14.25,0,0,1,3.72-2.19,13.65,13.65,0,0,1,4.23-.84l1.31-.06-1.13,5-1-.19a7.76,7.76,0,0,0-1.39-.19c-2.34,0-4.5,1.11-6.59,3.39a59.61,59.61,0,0,0,2.8,6.29c.6,1.17,1.12,2.11,1.56,2.79a6,6,0,0,0,1.07,1.34.89.89,0,0,0,.5.25c.27,0,1.08-.18,2.65-1.83l1-1.14,1.76,2-.54.65c-2.66,3.22-4.5,4.65-5.94,4.65a3.83,3.83,0,0,1-2.75-1.24,15.78,15.78,0,0,1-2.39-3.5c-1.11-2-2.08-4-2.89-5.87a29,29,0,0,0-3.09,8.89l-.1.6-4.48,1.45Z"/><path class="cls-1" d="M70.34,1.81,60.78,43.4a24.8,24.8,0,0,1,1.93-3.66,30,30,0,0,1,2.57-3.43,20.68,20.68,0,0,1,2.78-2.72,13.19,13.19,0,0,1,3.46-2,12.59,12.59,0,0,1,3.92-.77l-.63,2.81a8.88,8.88,0,0,0-1.58-.21q-4.15,0-7.73,4.18a61.18,61.18,0,0,0,3.06,7q.91,1.79,1.6,2.87A7.08,7.08,0,0,0,71.41,49a1.78,1.78,0,0,0,1.14.49q1.34,0,3.38-2.14l.28-.32.46.53Q73.12,51.8,71.5,51.8a2.86,2.86,0,0,1-2-.95,15,15,0,0,1-2.21-3.27,65.16,65.16,0,0,1-3.62-7.66,30.84,30.84,0,0,0-4.22,11l-2.29.74L66.54,3.6Z"/><path class="cls-1" d="M84.4,52.87a6.86,6.86,0,0,1-5.31-2.23,8.19,8.19,0,0,1-2-5.7,15,15,0,0,1,1.78-6.87,18.35,18.35,0,0,1,4.43-5.69A8.75,8.75,0,0,1,88.94,30a4.38,4.38,0,0,1,3,1.1A3.78,3.78,0,0,1,93.24,34c0,2.09-1.1,4.16-3.28,6.15a24.87,24.87,0,0,1-7.76,4.57A4.75,4.75,0,0,0,83.29,48,3.38,3.38,0,0,0,86,49.18a4.66,4.66,0,0,0,2.64-.87,14.57,14.57,0,0,0,3.08-3l.64-.8,2.15,1.79-.58.76a17.61,17.61,0,0,1-4.53,4.41A9.36,9.36,0,0,1,84.4,52.87Zm4.22-20c-1.14,0-2.45,1.09-3.78,3.15a16.54,16.54,0,0,0-2.31,5.47,15.63,15.63,0,0,0,3.83-2.73,11.87,11.87,0,0,0,2-2.79,5.5,5.5,0,0,0,.73-2.46C89.13,32.87,89,32.87,88.62,32.87Z"/><path class="cls-1" d="M92.49,45.89l.63.53a16.55,16.55,0,0,1-4.25,4.17,8.34,8.34,0,0,1-4.46,1.28A5.87,5.87,0,0,1,79.83,50a7.19,7.19,0,0,1-1.72-5,14,14,0,0,1,1.67-6.42A17.27,17.27,0,0,1,84,33.15a7.76,7.76,0,0,1,5-2.13,3.4,3.4,0,0,1,2.37.84A2.81,2.81,0,0,1,92.24,34q0,2.71-3,5.41a24.42,24.42,0,0,1-8.05,4.61,5.14,5.14,0,0,0,0,.63,5.79,5.79,0,0,0,1.34,4A4.36,4.36,0,0,0,86,50.18a5.67,5.67,0,0,0,3.2-1A15.46,15.46,0,0,0,92.49,45.89ZM81.24,43.22a18.87,18.87,0,0,0,5.84-3.76,12.83,12.83,0,0,0,2.21-3,6.43,6.43,0,0,0,.84-2.92q0-1.65-1.51-1.65-2.29,0-4.62,3.6A17.28,17.28,0,0,0,81.24,43.22Z"/><path class="cls-1" d="M103.94,2.92,110,0l-8.79,37.65c3.18-5.12,6.36-7.63,9.63-7.63a4.85,4.85,0,0,1,2.76.82,5.28,5.28,0,0,1,1.87,2.35,7.72,7.72,0,0,1,.63,3.07,17.54,17.54,0,0,1-1.33,6.29,21,21,0,0,1-3.36,5.85c-2.48,3-5.3,4.54-8.36,4.54a8.21,8.21,0,0,1-2.84-.5,12.33,12.33,0,0,1-2.36-1.21L94,53.53ZM99.52,47.7A3.82,3.82,0,0,0,103,50.06a4.46,4.46,0,0,0,3.21-1.53,15.13,15.13,0,0,0,3-5,26.42,26.42,0,0,0,1.29-4.12A16.56,16.56,0,0,0,111,36c0-2.3-.89-2.3-1.32-2.3a4.71,4.71,0,0,0-2.82,1.62A23.84,23.84,0,0,0,103,40.37,54.36,54.36,0,0,0,99.52,47.7Z"/><path class="cls-1" d="M104.83,3.6l3.73-1.79L98.43,45.15Q104.76,31,110.84,31a3.85,3.85,0,0,1,2.2.65,4.26,4.26,0,0,1,1.51,1.92,6.69,6.69,0,0,1,.54,2.67,16.5,16.5,0,0,1-1.27,5.92,19.89,19.89,0,0,1-3.2,5.57q-3.45,4.18-7.59,4.18a7.18,7.18,0,0,1-2.5-.44A12.33,12.33,0,0,1,97.87,50L95.4,51.52Zm-6.4,44.16q1.58,3.3,4.54,3.3a5.45,5.45,0,0,0,3.92-1.83,16,16,0,0,0,3.22-5.31,27.23,27.23,0,0,0,1.34-4.27A17.41,17.41,0,0,0,112,36q0-3.3-2.32-3.3a5.48,5.48,0,0,0-3.52,1.9,24.69,24.69,0,0,0-4,5.29A56,56,0,0,0,98.43,47.76Z"/><path class="cls-1" d="M124.62,52.94a7.17,7.17,0,0,1-5.56-2.35,8.64,8.64,0,0,1-2.09-6,14.18,14.18,0,0,1,1.83-6.79,16.18,16.18,0,0,1,4.7-5.45,10.32,10.32,0,0,1,6.11-2.16,7.18,7.18,0,0,1,5.5,2.27,8.12,8.12,0,0,1,2.08,5.73,14.9,14.9,0,0,1-1.79,7,16.22,16.22,0,0,1-4.68,5.52A10.19,10.19,0,0,1,124.62,52.94ZM129.33,33a3.85,3.85,0,0,0-2.26.77,8.29,8.29,0,0,0-2.2,2.48,20.2,20.2,0,0,0-2,4.68,17.1,17.1,0,0,0-.79,4.71,5.85,5.85,0,0,0,.83,3.42,2.39,2.39,0,0,0,2.11,1c1.64,0,3.15-1.26,4.5-3.73a20.33,20.33,0,0,0,1.81-4.66,19.3,19.3,0,0,0,.67-4.81,4.6,4.6,0,0,0-.83-2.88A2.2,2.2,0,0,0,129.33,33Z"/><path class="cls-1" d="M118,44.59a13.14,13.14,0,0,1,1.71-6.31,15.12,15.12,0,0,1,4.41-5.12,9.3,9.3,0,0,1,5.52-2,6.19,6.19,0,0,1,4.76,2,7.12,7.12,0,0,1,1.81,5,13.84,13.84,0,0,1-1.67,6.54,15.16,15.16,0,0,1-4.39,5.19,9.18,9.18,0,0,1-5.5,2,6.18,6.18,0,0,1-4.82-2A7.64,7.64,0,0,1,118,44.59Zm15-7.73a5.61,5.61,0,0,0-1-3.48A3.19,3.19,0,0,0,129.33,32a4.86,4.86,0,0,0-2.83.95A9.22,9.22,0,0,0,124,35.73a21.09,21.09,0,0,0-2.09,4.92,18,18,0,0,0-.83,5,6.75,6.75,0,0,0,1,4A3.39,3.39,0,0,0,125,51.06q3.06,0,5.38-4.25a21.21,21.21,0,0,0,1.9-4.89A20.2,20.2,0,0,0,133,36.86Z"/><path class="cls-1" d="M149.19,52.38l-3.44-7.46-1.08,1.32-2.15,2.61c-1.36,1.69-2.24,2.75-2.68,3.22l-.3.31h-5.3l2.27-2.27c2-2,4.26-4.47,6.81-7.37l.94-1.06-4.77-10.34,4.34-1.77,3.86,8.15.26-.31q1-1.09,2.8-3.33l2.35-2.91.64-.83h5.21l-1.87,2.06c-1.85,1.95-3.39,3.61-4.6,5q-2.33,2.54-3.26,3.57l5.39,11.46Z"/><path class="cls-1" d="M147.44,39.53l.63-.74.63-.74q.95-1.09,2.81-3.34l2.36-2.92.35-.46h2.46l-.35.39q-2.78,2.92-4.61,5-2.81,3.06-3.59,3.94l-.11.14,5,10.62h-3.2L146,43.08l-.11.14q-.53.56-2,2.39l-2.14,2.6q-2,2.5-2.64,3.16h-2.46l.56-.56q3-3,6.86-7.42l1.37-1.55-4.61-10,2.5-1Z"/></g></g></svg>