<svg xmlns="http://www.w3.org/2000/svg" viewBox="0 0 640 704"><defs><style>.cls-1{fill:#555;}</style></defs><title>trash</title><g id="レイヤー_2" data-name="レイヤー 2"><g id="レイヤー_1-2" data-name="レイヤー 1"><path class="cls-1" d="M608,128H480V96A96,96,0,0,0,384,0H256a96,96,0,0,0-96,96v32H32a32,32,0,0,0,0,64H64V608a96,96,0,0,0,96,96H480a96,96,0,0,0,96-96V192h32a32,32,0,0,0,0-64ZM224,96a32.09,32.09,0,0,1,32-32H384a32.09,32.09,0,0,1,32,32v32H224ZM512,608a32.09,32.09,0,0,1-32,32H160a32.09,32.09,0,0,1-32-32V192H512Z"/></g></g></svg>