<svg xmlns="http://www.w3.org/2000/svg" viewBox="0 0 448 448"><title>user</title><g id="レイヤー_2" data-name="レイヤー 2"><g id="レイヤー_1-2" data-name="レイヤー 1"><path d="M224,0C347.75,0,448,100.25,448,224c0,123-99.75,224-224,224C100,448,0,347.25,0,224,0,100.25,100.25,0,224,0ZM378.75,337.75A193,193,0,0,0,416,224c0-105.75-86.25-192-192-192S32,118.25,32,224A193,193,0,0,0,69.25,337.75C78.25,293,100,256,145.75,256a111.67,111.67,0,0,0,156.5,0C348,256,369.75,293,378.75,337.75ZM320,176a96,96,0,1,0-96,96A96,96,0,0,0,320,176Z"/></g></g></svg>